<?xml version="1.0" standalone="no"?>
<!DOCTYPE svg PUBLIC "-//W3C//DTD SVG 20010904//EN"
 "http://www.w3.org/TR/2001/REC-SVG-20010904/DTD/svg10.dtd">
<svg version="1.0" xmlns="http://www.w3.org/2000/svg"
 width="400.000000pt" height="400.000000pt" viewBox="0 0 400.000000 400.000000"
 preserveAspectRatio="xMidYMid meet">
<metadata>
Created by potrace 1.14, written by Peter Selinger 2001-2017
</metadata>
<g transform="translate(0.000000,400.000000) scale(0.100000,-0.100000)"
fill="#000000" stroke="none">
<path d="M1 1998 c1 -1949 1 -2002 19 -1948 10 30 32 102 50 160 37 120 108
276 200 435 35 61 72 127 83 148 11 21 29 44 41 52 39 25 147 66 199 75 28 6
94 31 146 56 53 26 113 53 135 60 21 8 90 41 152 74 108 58 238 110 274 110
31 0 163 106 244 195 l79 86 -7 95 c-5 68 -14 109 -32 149 -14 30 -33 91 -42
135 -9 44 -21 80 -27 80 -13 0 -54 43 -77 81 -20 32 -88 320 -88 372 0 58 24
107 53 107 28 0 57 -20 60 -40 2 -8 6 -21 11 -28 4 -7 5 -26 1 -42 -4 -16 -2
-37 4 -47 10 -17 10 -17 12 2 1 11 2 25 3 30 1 6 5 42 10 80 4 39 10 81 12 95
3 14 7 63 11 109 4 65 2 85 -8 92 -11 7 -11 9 -1 9 14 0 32 40 38 84 2 15 9
34 15 42 6 8 8 14 4 14 -5 0 -1 8 8 18 10 10 15 21 12 24 -9 9 143 158 172
169 35 13 120 17 210 10 40 -3 83 -3 97 0 16 5 37 -2 67 -20 48 -29 105 -47
157 -50 24 -1 39 6 57 25 l25 27 83 -12 c45 -7 89 -13 98 -14 27 -4 118 -79
142 -116 12 -19 30 -47 39 -61 20 -29 38 -67 43 -92 2 -9 11 -30 20 -48 12
-22 13 -35 6 -44 -8 -9 -6 -30 4 -71 14 -51 22 -126 27 -257 2 -42 18 -29 18
14 0 31 67 108 92 108 30 0 50 -38 58 -111 4 -40 6 -77 4 -83 -2 -6 -8 -40
-13 -76 -18 -129 -48 -207 -101 -262 -37 -39 -53 -48 -69 -43 -16 5 -21 1 -25
-17 -3 -13 -14 -68 -26 -123 -29 -139 -40 -303 -22 -321 7 -8 17 -14 22 -14
25 0 85 -72 126 -151 36 -70 61 -103 118 -155 39 -37 94 -77 121 -90 55 -26
204 -110 305 -172 36 -22 119 -69 185 -103 152 -79 224 -127 303 -202 l62 -60
0 1726 0 1727 -2000 0 -2000 0 1 -2002z m1302 1961 c35 -9 38 -13 35 -42 -3
-29 -6 -31 -45 -33 -24 -1 -50 4 -58 10 -14 10 -14 14 0 44 19 36 17 36 68 21z
m-673 -182 c0 -4 -27 -63 -39 -87 -15 -29 -47 -23 -64 12 -15 31 -15 34 5 55
15 16 33 23 60 23 21 0 38 -2 38 -3z m-300 -77 c0 -5 -4 -10 -9 -10 -6 0 -13
5 -16 10 -3 6 1 10 9 10 9 0 16 -4 16 -10z m-55 -13 c-27 -18 -65 -27 -65 -16
0 11 37 27 65 28 19 1 19 1 0 -12z m851 -174 c18 -24 17 -30 -5 -36 -31 -8
-45 7 -32 32 14 26 20 26 37 4z m-566 -29 c0 -17 -22 -14 -28 4 -2 7 3 12 12
12 9 0 16 -7 16 -16z m1345 -15 c8 -12 -23 -49 -42 -49 -17 0 -17 47 0 53 21
9 36 7 42 -4z m-800 -19 c18 -20 17 -20 -8 -20 -28 0 -42 14 -32 30 9 15 20
12 40 -10z m505 -235 c-7 -9 -15 -13 -18 -10 -3 2 1 11 8 20 7 9 15 13 18 10
3 -2 -1 -11 -8 -20z m-30 -43 c-1 -19 -13 -36 -53 -72 l-28 -25 15 30 c9 17
16 36 16 43 0 15 33 50 43 45 4 -2 7 -12 7 -21z m-807 -6 c6 -15 -41 -66 -61
-66 -7 0 -12 -8 -12 -19 0 -10 -7 -24 -15 -31 -17 -14 -50 -6 -40 10 4 6 2 17
-5 24 -8 11 -5 19 16 35 15 12 32 21 38 21 6 0 22 9 36 20 30 23 36 24 43 6z
m-118 -25 c-3 -6 -11 -11 -17 -11 -6 0 -6 6 2 15 14 17 26 13 15 -4z m2175
-101 c0 -5 -2 -10 -4 -10 -3 0 -8 5 -11 10 -3 6 -1 10 4 10 6 0 11 -4 11 -10z
m20 -81 c0 -6 -4 -7 -10 -4 -5 3 -10 11 -10 16 0 6 5 7 10 4 6 -3 10 -11 10
-16z"/>
<path d="M2385 2570 c-30 -8 -30 -8 8 -9 23 -1 36 3 32 9 -3 6 -7 9 -8 9 -1
-1 -15 -5 -32 -9z"/>
<path d="M2284 2534 c-18 -14 -18 -15 6 -8 14 3 32 10 40 15 12 7 11 8 -6 9
-11 0 -29 -7 -40 -16z"/>
<path d="M2339 2485 c-14 -8 -34 -26 -43 -40 l-16 -25 34 0 c23 0 38 6 45 18
9 16 11 16 23 0 7 -10 32 -20 55 -24 34 -5 44 -3 49 10 7 18 30 22 36 5 2 -6
24 -9 53 -7 l50 3 -50 25 c-58 28 -149 33 -203 11 -41 -17 -54 -6 -22 19 29
23 25 25 -11 5z m121 -29 c0 -2 -13 -6 -30 -8 -16 -3 -30 -1 -30 4 0 4 14 8
30 8 17 0 30 -2 30 -4z"/>
<path d="M1941 2460 c29 -24 10 -26 -33 -4 -39 20 -127 14 -184 -13 l-37 -18
39 -5 c21 -3 47 -1 57 5 13 7 20 6 27 -5 12 -19 91 -14 107 7 11 15 13 15 19
0 4 -10 17 -17 34 -17 26 0 27 2 17 25 -7 13 -22 29 -35 35 -34 15 -37 12 -11
-10z m-51 -20 c0 -5 -2 -10 -4 -10 -3 0 -8 5 -11 10 -3 6 -1 10 4 10 6 0 11
-4 11 -10z"/>
<path d="M1374 2445 c-3 -14 1 -60 11 -103 9 -42 21 -98 27 -124 5 -25 16 -55
23 -65 12 -15 12 -12 3 27 -6 25 -13 99 -17 165 -5 102 -9 120 -23 123 -12 2
-19 -5 -24 -23z"/>
<path d="M2942 2453 c-6 -12 -4 -49 5 -103 15 -83 12 -136 -12 -195 -6 -16 -5
-18 5 -8 18 16 49 183 50 261 0 55 -2 62 -20 62 -10 0 -23 -8 -28 -17z"/>
<path d="M2855 2310 c-3 -5 -1 -10 4 -10 6 0 11 5 11 10 0 6 -2 10 -4 10 -3 0
-8 -4 -11 -10z"/>
<path d="M1480 2161 c0 -11 4 -22 9 -25 4 -3 6 6 3 19 -5 30 -12 33 -12 6z"/>
<path d="M2349 2123 c11 -22 30 -38 35 -32 2 2 -8 15 -21 29 -23 23 -24 23
-14 3z"/>
<path d="M2203 2089 c-13 -5 -23 -15 -23 -23 0 -19 67 -33 82 -18 22 22 -24
54 -59 41z"/>
<path d="M2000 2074 c-11 -12 -10 -18 3 -31 14 -14 17 -14 32 1 9 9 21 16 27
16 6 0 6 6 -2 15 -16 19 -44 19 -60 -1z"/>
<path d="M2390 2070 c0 -5 5 -10 11 -10 5 0 7 5 4 10 -3 6 -8 10 -11 10 -2 0
-4 -4 -4 -10z"/>
<path d="M2120 2034 c0 -9 5 -14 12 -12 18 6 21 28 4 28 -9 0 -16 -7 -16 -16z"/>
<path d="M2475 1975 c46 -62 45 -61 45 -46 0 6 -18 31 -41 54 l-40 42 36 -50z"/>
<path d="M1510 1985 c0 -8 4 -15 10 -15 5 0 7 7 4 15 -4 8 -8 15 -10 15 -2 0
-4 -7 -4 -15z"/>
<path d="M2194 1871 c-5 -6 -168 -14 -279 -15 l-60 0 40 -12 c25 -8 112 -13
235 -13 166 -1 204 2 248 17 29 10 54 21 56 23 2 2 -50 4 -115 4 -66 1 -122
-2 -125 -4z"/>
<path d="M2747 1367 c-2 -7 6 -43 18 -81 22 -68 22 -68 29 -34 3 20 4 42 2 49
-2 8 -7 26 -10 40 -6 29 -31 45 -39 26z"/>
<path d="M1603 1195 c0 -38 2 -53 4 -32 2 20 2 52 0 70 -2 17 -4 1 -4 -38z"/>
<path d="M1626 690 c-54 -16 -101 -32 -104 -35 -8 -8 76 5 106 16 41 16 62 10
105 -29 38 -35 77 -46 77 -21 0 5 17 6 40 3 23 -4 40 -3 40 3 0 19 -50 55 -79
58 -17 1 -39 9 -49 19 -23 20 -18 21 -136 -14z"/>
<path d="M2560 653 c0 -29 12 -39 80 -66 80 -31 129 -44 200 -51 49 -5 46 -3
-26 13 -57 14 -106 34 -160 67 -44 26 -82 49 -86 51 -5 2 -8 -4 -8 -14z"/>
<path d="M2445 640 c3 -5 8 -10 11 -10 2 0 4 5 4 10 0 6 -5 10 -11 10 -5 0 -7
-4 -4 -10z"/>
<path d="M2372 503 c-34 -14 -67 -34 -73 -44 -7 -14 -6 -19 2 -19 11 0 83 37
104 53 5 4 19 14 30 22 30 21 8 17 -63 -12z"/>
<path d="M2090 265 c0 -23 2 -26 15 -15 13 11 14 10 9 -6 -6 -16 -5 -17 7 -6
10 9 11 17 3 29 -18 28 -34 27 -34 -2z"/>
<path d="M2060 237 c0 -20 26 -39 45 -35 13 2 10 8 -14 26 -23 16 -31 19 -31
9z"/>
</g>
</svg>
